<svg id="visual" viewBox="0 0 900 600" xmlns="http://www.w3.org/2000/svg" xmlns:xlink="http://www.w3.org/1999/xlink"
    version="1.1">
    <rect x="0" y="0" fill="#001220"></rect>
    <path
        d="M0 407L21.5 398C43 389 86 371 128.8 353.5C171.7 336 214.3 319 257.2 317.7C300 316.3 343 330.7 385.8 344.3C428.7 358 471.3 371 514.2 382.5C557 394 600 404 642.8 399.5C685.7 395 728.3 376 771.2 369.5C814 363 857 369 878.5 372L900 375L900 601L878.5 601C857 601 814 601 771.2 601C728.3 601 685.7 601 642.8 601C600 601 557 601 514.2 601C471.3 601 428.7 601 385.8 601C343 601 300 601 257.2 601C214.3 601 171.7 601 128.8 601C86 601 43 601 21.5 601L0 601Z"
        fill="#fa7268"></path>
    <path
        d="M0 423L21.5 428C43 433 86 443 128.8 433.8C171.7 424.7 214.3 396.3 257.2 396.5C300 396.7 343 425.3 385.8 435.2C428.7 445 471.3 436 514.2 434.5C557 433 600 439 642.8 434.3C685.7 429.7 728.3 414.3 771.2 412.8C814 411.3 857 423.7 878.5 429.8L900 436L900 601L878.5 601C857 601 814 601 771.2 601C728.3 601 685.7 601 642.8 601C600 601 557 601 514.2 601C471.3 601 428.7 601 385.8 601C343 601 300 601 257.2 601C214.3 601 171.7 601 128.8 601C86 601 43 601 21.5 601L0 601Z"
        fill="#ef5f67"></path>
    <path
        d="M0 454L21.5 446.7C43 439.3 86 424.7 128.8 423.3C171.7 422 214.3 434 257.2 438.7C300 443.3 343 440.7 385.8 437C428.7 433.3 471.3 428.7 514.2 437.8C557 447 600 470 642.8 479.2C685.7 488.3 728.3 483.7 771.2 480C814 476.3 857 473.7 878.5 472.3L900 471L900 601L878.5 601C857 601 814 601 771.2 601C728.3 601 685.7 601 642.8 601C600 601 557 601 514.2 601C471.3 601 428.7 601 385.8 601C343 601 300 601 257.2 601C214.3 601 171.7 601 128.8 601C86 601 43 601 21.5 601L0 601Z"
        fill="#e34c67"></path>
    <path
        d="M0 502L21.5 496.3C43 490.7 86 479.3 128.8 472C171.7 464.7 214.3 461.3 257.2 470.3C300 479.3 343 500.7 385.8 502.7C428.7 504.7 471.3 487.3 514.2 487.3C557 487.3 600 504.7 642.8 509.7C685.7 514.7 728.3 507.3 771.2 501.8C814 496.3 857 492.7 878.5 490.8L900 489L900 601L878.5 601C857 601 814 601 771.2 601C728.3 601 685.7 601 642.8 601C600 601 557 601 514.2 601C471.3 601 428.7 601 385.8 601C343 601 300 601 257.2 601C214.3 601 171.7 601 128.8 601C86 601 43 601 21.5 601L0 601Z"
        fill="#d53867"></path>
    <path
        d="M0 545L21.5 548.7C43 552.3 86 559.7 128.8 553.7C171.7 547.7 214.3 528.3 257.2 527.2C300 526 343 543 385.8 548.7C428.7 554.3 471.3 548.7 514.2 546.7C557 544.7 600 546.3 642.8 543C685.7 539.7 728.3 531.3 771.2 531C814 530.7 857 538.3 878.5 542.2L900 546L900 601L878.5 601C857 601 814 601 771.2 601C728.3 601 685.7 601 642.8 601C600 601 557 601 514.2 601C471.3 601 428.7 601 385.8 601C343 601 300 601 257.2 601C214.3 601 171.7 601 128.8 601C86 601 43 601 21.5 601L0 601Z"
        fill="#c62368"></path>
</svg>